<?xml version="1.0" standalone="no"?>
<!DOCTYPE svg PUBLIC "-//W3C//DTD SVG 20010904//EN"
 "http://www.w3.org/TR/2001/REC-SVG-20010904/DTD/svg10.dtd">
<svg version="1.0" xmlns="http://www.w3.org/2000/svg"
 width="736.000000pt" height="552.000000pt" viewBox="0 0 736.000000 552.000000"
 preserveAspectRatio="xMidYMid meet">

<g transform="translate(0.000000,552.000000) scale(0.100000,-0.100000)"
fill="#000000" stroke="none">
<path d="M3485 3713 c-93 -41 -242 -106 -330 -145 -349 -153 -345 -150 -345
-172 1 -12 58 -250 128 -530 l127 -509 308 -167 309 -167 166 90 c92 50 208
112 257 139 50 27 113 61 142 75 l52 27 101 409 c55 226 99 412 97 414 -2 2
-102 -54 -223 -123 -120 -69 -297 -171 -392 -226 -95 -54 -180 -102 -188 -105
-12 -4 -14 70 -14 531 0 423 -3 536 -12 535 -7 0 -89 -34 -183 -76z"/>
<path d="M3166 2135 c-62 -22 -89 -55 -94 -117 -5 -68 8 -99 54 -134 50 -38
126 -40 171 -4 99 80 73 227 -46 260 -43 12 -37 12 -85 -5z"/>
<path d="M3614 1916 c-95 -42 -111 -189 -28 -253 100 -76 244 -8 244 116 0
113 -111 183 -216 137z"/>
</g>
</svg>
